<?xml version="1.0" encoding="UTF-8"?>
<svg id="a" data-name="vector" xmlns="http://www.w3.org/2000/svg" viewBox="0 0 18 18">
  <path id="b" data-name="path 0" class="d" fill="white" d="m10.36,16.62H2.07c-.38,0-.69-.31-.69-.69V7.64c0-.38.31-.69.69-.69h8.29c.38,0,.69.31.69.69v8.29c0,.38-.31.69-.69.69Zm.69-11.05H1.38c-.76,0-1.38.62-1.38,1.38v9.67c0,.76.62,1.38,1.38,1.38h9.67c.76,0,1.38-.62,1.38-1.38V6.95c0-.76-.62-1.38-1.38-1.38Z"/>
  <path id="c" data-name="path 0" class="d" fill="white" d="m15.93,11.05H7.64c-.38,0-.69-.31-.69-.69V2.07c0-.38.31-.69.69-.69h8.29c.38,0,.69.31.69.69v8.29c0,.38-.31.69-.69.69Zm.69-11.05H6.95c-.76,0-1.38.62-1.38,1.38v9.67c0,.76.62,1.38,1.38,1.38h9.67c.76,0,1.38-.62,1.38-1.38V1.38c0-.76-.62-1.38-1.38-1.38Z"/>
</svg>